<mxfile host="app.diagrams.net" modified="2024-03-13T18:07:33.097Z" agent="Mozilla/5.0 (Windows NT 10.0; Win64; x64) AppleWebKit/537.36 (KHTML, like Gecko) Chrome/122.0.0.0 Safari/537.36" etag="SCpgDvHwiJ2MtoFn9vMg" version="24.0.5" type="device">
  <diagram name="Página-1" id="cnQkyO3ZkhGVbM5WxD46">
    <mxGraphModel dx="880" dy="478" grid="1" gridSize="10" guides="1" tooltips="1" connect="1" arrows="1" fold="1" page="1" pageScale="1" pageWidth="827" pageHeight="1169" math="0" shadow="0">
      <root>
        <mxCell id="0" />
        <mxCell id="1" parent="0" />
        <mxCell id="BblbeITnr6W8W4tn1TA6-11" style="edgeStyle=orthogonalEdgeStyle;rounded=0;orthogonalLoop=1;jettySize=auto;html=1;" edge="1" parent="1" source="BblbeITnr6W8W4tn1TA6-1" target="BblbeITnr6W8W4tn1TA6-8">
          <mxGeometry relative="1" as="geometry" />
        </mxCell>
        <mxCell id="BblbeITnr6W8W4tn1TA6-1" value="Consultas e Relatórios" style="rounded=0;whiteSpace=wrap;html=1;" vertex="1" parent="1">
          <mxGeometry x="540" y="160" width="120" height="60" as="geometry" />
        </mxCell>
        <mxCell id="BblbeITnr6W8W4tn1TA6-13" style="edgeStyle=orthogonalEdgeStyle;rounded=0;orthogonalLoop=1;jettySize=auto;html=1;entryX=0.5;entryY=0;entryDx=0;entryDy=0;" edge="1" parent="1" source="BblbeITnr6W8W4tn1TA6-2" target="BblbeITnr6W8W4tn1TA6-10">
          <mxGeometry relative="1" as="geometry" />
        </mxCell>
        <mxCell id="BblbeITnr6W8W4tn1TA6-2" value="Cadastros" style="rounded=0;whiteSpace=wrap;html=1;" vertex="1" parent="1">
          <mxGeometry x="140" y="160" width="120" height="60" as="geometry" />
        </mxCell>
        <mxCell id="BblbeITnr6W8W4tn1TA6-12" style="edgeStyle=orthogonalEdgeStyle;rounded=0;orthogonalLoop=1;jettySize=auto;html=1;entryX=0.5;entryY=0;entryDx=0;entryDy=0;" edge="1" parent="1" source="BblbeITnr6W8W4tn1TA6-3" target="BblbeITnr6W8W4tn1TA6-9">
          <mxGeometry relative="1" as="geometry" />
        </mxCell>
        <mxCell id="BblbeITnr6W8W4tn1TA6-3" value="Processos" style="rounded=0;whiteSpace=wrap;html=1;" vertex="1" parent="1">
          <mxGeometry x="340" y="160" width="120" height="60" as="geometry" />
        </mxCell>
        <mxCell id="BblbeITnr6W8W4tn1TA6-5" style="edgeStyle=orthogonalEdgeStyle;rounded=0;orthogonalLoop=1;jettySize=auto;html=1;entryX=0.5;entryY=0;entryDx=0;entryDy=0;" edge="1" parent="1" source="BblbeITnr6W8W4tn1TA6-4" target="BblbeITnr6W8W4tn1TA6-3">
          <mxGeometry relative="1" as="geometry" />
        </mxCell>
        <mxCell id="BblbeITnr6W8W4tn1TA6-6" style="edgeStyle=orthogonalEdgeStyle;rounded=0;orthogonalLoop=1;jettySize=auto;html=1;entryX=0.5;entryY=0;entryDx=0;entryDy=0;" edge="1" parent="1" source="BblbeITnr6W8W4tn1TA6-4" target="BblbeITnr6W8W4tn1TA6-1">
          <mxGeometry relative="1" as="geometry" />
        </mxCell>
        <mxCell id="BblbeITnr6W8W4tn1TA6-7" style="edgeStyle=orthogonalEdgeStyle;rounded=0;orthogonalLoop=1;jettySize=auto;html=1;entryX=0.5;entryY=0;entryDx=0;entryDy=0;" edge="1" parent="1" source="BblbeITnr6W8W4tn1TA6-4" target="BblbeITnr6W8W4tn1TA6-2">
          <mxGeometry relative="1" as="geometry" />
        </mxCell>
        <mxCell id="BblbeITnr6W8W4tn1TA6-4" value="Sistema Agendamento Consultas Médicas" style="rounded=0;whiteSpace=wrap;html=1;" vertex="1" parent="1">
          <mxGeometry x="340" y="70" width="120" height="60" as="geometry" />
        </mxCell>
        <mxCell id="BblbeITnr6W8W4tn1TA6-19" style="edgeStyle=orthogonalEdgeStyle;rounded=0;orthogonalLoop=1;jettySize=auto;html=1;entryX=0.5;entryY=0;entryDx=0;entryDy=0;" edge="1" parent="1" source="BblbeITnr6W8W4tn1TA6-8" target="BblbeITnr6W8W4tn1TA6-14">
          <mxGeometry relative="1" as="geometry" />
        </mxCell>
        <mxCell id="BblbeITnr6W8W4tn1TA6-8" value="Consultar Pacientes" style="rounded=0;whiteSpace=wrap;html=1;" vertex="1" parent="1">
          <mxGeometry x="540" y="260" width="120" height="60" as="geometry" />
        </mxCell>
        <mxCell id="BblbeITnr6W8W4tn1TA6-18" style="edgeStyle=orthogonalEdgeStyle;rounded=0;orthogonalLoop=1;jettySize=auto;html=1;entryX=0.5;entryY=0;entryDx=0;entryDy=0;" edge="1" parent="1" source="BblbeITnr6W8W4tn1TA6-9" target="BblbeITnr6W8W4tn1TA6-15">
          <mxGeometry relative="1" as="geometry" />
        </mxCell>
        <mxCell id="BblbeITnr6W8W4tn1TA6-9" value="Agendar Consulta" style="rounded=0;whiteSpace=wrap;html=1;" vertex="1" parent="1">
          <mxGeometry x="340" y="260" width="120" height="60" as="geometry" />
        </mxCell>
        <mxCell id="BblbeITnr6W8W4tn1TA6-17" style="edgeStyle=orthogonalEdgeStyle;rounded=0;orthogonalLoop=1;jettySize=auto;html=1;entryX=0.5;entryY=0;entryDx=0;entryDy=0;" edge="1" parent="1" source="BblbeITnr6W8W4tn1TA6-10" target="BblbeITnr6W8W4tn1TA6-16">
          <mxGeometry relative="1" as="geometry" />
        </mxCell>
        <mxCell id="BblbeITnr6W8W4tn1TA6-10" value="Cadastros Pacientes" style="rounded=0;whiteSpace=wrap;html=1;" vertex="1" parent="1">
          <mxGeometry x="140" y="260" width="120" height="60" as="geometry" />
        </mxCell>
        <mxCell id="BblbeITnr6W8W4tn1TA6-23" style="edgeStyle=orthogonalEdgeStyle;rounded=0;orthogonalLoop=1;jettySize=auto;html=1;entryX=0.5;entryY=0;entryDx=0;entryDy=0;" edge="1" parent="1" source="BblbeITnr6W8W4tn1TA6-14" target="BblbeITnr6W8W4tn1TA6-20">
          <mxGeometry relative="1" as="geometry" />
        </mxCell>
        <mxCell id="BblbeITnr6W8W4tn1TA6-14" value="Consultar Médicos" style="rounded=0;whiteSpace=wrap;html=1;" vertex="1" parent="1">
          <mxGeometry x="540" y="360" width="120" height="60" as="geometry" />
        </mxCell>
        <mxCell id="BblbeITnr6W8W4tn1TA6-15" value="Atendimento Paciente" style="rounded=0;whiteSpace=wrap;html=1;" vertex="1" parent="1">
          <mxGeometry x="340" y="360" width="120" height="60" as="geometry" />
        </mxCell>
        <mxCell id="BblbeITnr6W8W4tn1TA6-22" style="edgeStyle=orthogonalEdgeStyle;rounded=0;orthogonalLoop=1;jettySize=auto;html=1;entryX=0.5;entryY=0;entryDx=0;entryDy=0;" edge="1" parent="1" source="BblbeITnr6W8W4tn1TA6-16" target="BblbeITnr6W8W4tn1TA6-21">
          <mxGeometry relative="1" as="geometry" />
        </mxCell>
        <mxCell id="BblbeITnr6W8W4tn1TA6-16" value="Cadastro Atendentes" style="rounded=0;whiteSpace=wrap;html=1;" vertex="1" parent="1">
          <mxGeometry x="140" y="360" width="120" height="60" as="geometry" />
        </mxCell>
        <mxCell id="BblbeITnr6W8W4tn1TA6-20" value="Consultar Agenda" style="rounded=0;whiteSpace=wrap;html=1;" vertex="1" parent="1">
          <mxGeometry x="540" y="460" width="120" height="60" as="geometry" />
        </mxCell>
        <mxCell id="BblbeITnr6W8W4tn1TA6-21" value="Cadastro Médicos" style="rounded=0;whiteSpace=wrap;html=1;" vertex="1" parent="1">
          <mxGeometry x="140" y="460" width="120" height="60" as="geometry" />
        </mxCell>
      </root>
    </mxGraphModel>
  </diagram>
</mxfile>
